<svg xmlns="http://www.w3.org/2000/svg" version="1.1" xmlns:xlink="http://www.w3.org/1999/xlink" xmlns:svgjs="http://svgjs.dev/svgjs" width="1000" height="111" viewBox="0 0 1000 111">
    <g transform="matrix(1,0,0,1,-0.6060606060606233,-0.3117640640197976)">
        <svg viewBox="0 0 396 44" data-background-color="#ffffff" preserveAspectRatio="xMidYMid meet" height="111" width="1000" xmlns="http://www.w3.org/2000/svg" xmlns:xlink="http://www.w3.org/1999/xlink">
            <g id="tight-bounds" transform="matrix(1,0,0,1,0.2400000000000091,0.12358215150334217)">
                <svg viewBox="0 0 395.52 43.7528356969933" height="43.7528356969933" width="395.52">
                    <g>
                        <svg viewBox="0 0 477.7583903321546 52.850132370203156" height="43.7528356969933" width="395.52">
                            <g>
                                <rect width="4.7423676402801265" height="52.850132370203156" x="65.08144771731916" y="0" fill="#ffffff" opacity="1" stroke-width="0" stroke="transparent" fill-opacity="1" class="rect-o-0" data-fill-palette-color="#ffffff" rx="1%" id="o-0" data-palette-color="#ffffff"></rect>
                            </g>
                            <g transform="matrix(1,0,0,1,82.2383903321546,0.13146799097065198)">
                                <svg viewBox="0 0 395.52 52.58719638826185" height="52.58719638826185" width="395.52">
                                    <g id="textblocktransform">
                                        <svg viewBox="0 0 395.52 52.58719638826185" height="52.58719638826185" width="395.52" id="textblock">
                                            <g>
                                                <svg viewBox="0 0 395.52 52.58719638826185" height="52.58719638826185" width="395.52">
                                                    <g transform="matrix(1,0,0,1,0,0)">
                                                        <svg width="395.52" viewBox="3.5 -29.450000762939453 221.49000549316406 29.450000762939453" height="52.58719638826185" data-palette-color="#ffffff">
                                                            <path d="M26.55 0L12.65 0Q9.1 0 7.1-1 5.1-2 4.3-4 3.5-6 3.5-8.95L3.5-8.95 3.5-20.1Q3.5-24.9 5.65-27.18 7.8-29.45 12.65-29.45L12.65-29.45 27.7-29.45Q31.15-29.45 32.98-29.08 34.8-28.7 34.8-28.3L34.8-28.3 33.8-24.15Q32.95-24.3 28.78-24.48 24.6-24.65 16.65-24.65L16.65-24.65 14.1-24.65Q10.1-24.65 10.1-21.1L10.1-21.1 10.1-8.35Q10.1-6.65 10.98-5.73 11.85-4.8 14.1-4.8L14.1-4.8 16.15-4.8Q24.45-4.8 29.03-4.98 33.6-5.15 34.7-5.35L34.7-5.35 36.75-2.05Q36.75-1.8 35.93-1.3 35.1-0.8 32.9-0.4 30.7 0 26.55 0L26.55 0ZM60.2 0L52.2 0 38.25-29.35 45.25-29.35 54.65-9.1 56-5.5 56.45-5.5 57.75-9.1 67.25-29.35 74.05-29.35 73.25-26.35 60.2 0ZM85.65 0L79.05 0 79.05-25.4 78.55-29.4 86.15-29.4 97.45-9.4 109.15-29.4 115.9-29.4 115.9 0 109.3 0 109.3-18.65 108.75-18.65 106.8-14.3 100.5-3 94.45-3 88.15-14.3 86.15-18.65 85.65-18.65 85.65 0ZM127.19 0L119.89 0 134.54-29.4 144.39-29.4 158.99 0 151.29 0 148.34-6.35 130.44-6.35 127.19 0ZM139.14-24.9L132.24-11.25 146.49-11.25 139.64-24.9 139.14-24.9ZM173.64 0L167.04 0 166.99-24.65 153.99-24.65 153.99-29.45 186.69-29.45 186.69-24.65 173.64-24.65 173.64 0ZM218.99 0L191.69 0 191.69-29.4 222.79-29.4 222.79-24.6 198.29-24.6 198.29-17.7 216.99-17.7 216.99-12.75 198.29-12.75 198.29-4.8 222.99-4.8 224.99-0.55Q224.99-0.35 223.64-0.18 222.29 0 218.99 0L218.99 0Z" opacity="1" transform="matrix(1,0,0,1,0,0)" fill="#ffffff" class="undefined-text-0" data-fill-palette-color="#ffffff" id="text-0"></path>
                                                        </svg>
                                                    </g>
                                                </svg>
                                            </g>
                                        </svg>
                                    </g>
                                </svg>
                            </g>
                            <g transform="matrix(1,0,0,1,0,0.13146799097065198)">
                                <svg viewBox="0 0 52.66687274276386 52.58719638826185" height="52.58719638826185" width="52.66687274276386">
                                    <g>
                                        <svg xmlns="http://www.w3.org/2000/svg" xmlns:xlink="http://www.w3.org/1999/xlink" version="1.1" x="0" y="0" viewBox="1 1 66.0999984741211 66" style="enable-background:new 0 0 68 68;" xml:space="preserve" height="52.58719638826185" width="52.66687274276386" class="icon-icon-0" data-fill-palette-color="#ffffff" id="icon-0">
                      <g fill="#ffffff" data-fill-palette-color="#ffffff">
                        <g fill="#ffffff" data-fill-palette-color="#ffffff">
                          <path class="" d="M65.5 55.7h-1.1V12.9c0-2.3-1.9-4.2-4.2-4.2h-9.4l-7.3-7.4 0 0C43.2 1.1 42.9 1 42.7 1H18.5c-0.6 0-1 0.4-1 1v2.5h-2.3c-0.6 0-1 0.4-1 1v3.2H7.9c-2.3 0-4.3 1.9-4.3 4.2v42.8H2.5c-0.8 0-1.5 0.7-1.5 1.5 0 5.4 4.4 9.8 9.8 9.8h46.5c5.4 0 9.8-4.4 9.8-9.8C67 56.4 66.3 55.7 65.5 55.7zM15.2 50.7h34.9c0.6 0 1-0.4 1-1v-2.5h2.3c0.6 0 1-0.4 1-1V14.9h2.6v37H10.9v-37h3.3v34.7C14.2 50.2 14.7 50.7 15.2 50.7zM43.7 4.4l7.4 7.5h-7.4V4.4zM41.7 3v10c0 0.6 0.4 1 1 1h9.8v31.2H19.5V5.5c0 0 0 0 0 0 0 0 0 0 0 0V3H41.7zM16.2 6.5h1.3v39.6c0 0.6 0.4 1 1 1h30.6v1.5H16.2V6.5zM5.7 12.9c0-1.2 1-2.2 2.3-2.2h6.3v2.2H9.9c-0.6 0-1 0.4-1 1v39c0 0.6 0.4 1 1 1h48.2c0.6 0 1-0.4 1-1v-39c0-0.6-0.4-1-1-1h-3.6c0 0 0 0 0 0 0-0.1 0-0.2-0.1-0.3 0 0 0-0.1 0-0.1 0-0.1-0.1-0.2-0.2-0.3l0 0 0 0-1.5-1.6h7.4c1.2 0 2.3 1 2.3 2.2v42.8H5.7V12.9zM57.2 65H10.8c-4.1 0-7.5-3.2-7.8-7.3 0.5 0 61.7 0 62 0C64.7 61.8 61.4 65 57.2 65z" fill="#ffffff" data-fill-palette-color="#ffffff"></path>
                        </g>
                          <g fill="#ffffff" data-fill-palette-color="#ffffff">
                          <path class="" d="M40.1 60.4H27.9c-0.6 0-1 0.4-1 1 0 0.6 0.4 1 1 1h12.2c0.6 0 1-0.4 1-1C41.1 60.8 40.6 60.4 40.1 60.4z" fill="#ffffff" data-fill-palette-color="#ffffff"></path>
                        </g>
                          <g fill="#ffffff" data-fill-palette-color="#ffffff">
                          <path class="" d="M24 23.3h14.8c0.6 0 1-0.4 1-1v-1.1c0-3.3-2.3-6.1-5.4-6.8 1.2-0.9 2.1-2.4 2.1-4 0-2.8-2.3-5-5-5-2.8 0-5 2.3-5 5 0 1.7 0.8 3.1 2 4-3.1 0.7-5.5 3.5-5.5 6.9v1.1C23 22.8 23.5 23.3 24 23.3zM31.5 7.3c1.7 0 3 1.4 3 3s-1.4 3-3 3c-1.7 0-3-1.4-3-3S29.8 7.3 31.5 7.3zM25 21.2c0-2.8 2.3-5 5-5h2.7c2.8 0 5 2.3 5 5v0.1L25 21.2 25 21.2z" fill="#ffffff" data-fill-palette-color="#ffffff"></path>
                        </g>
                          <g fill="#ffffff" data-fill-palette-color="#ffffff">
                          <path class="" d="M42.7 26.6l0.2 4.9c0 0.6 0.5 1 1 1 0.6 0 1-0.5 1-1l-0.1-2.3 3.4 3.4c0.4 0.4 1 0.4 1.4 0 0.4-0.4 0.4-1 0-1.4l-3.4-3.4 2.2 0.1c0.6 0 1-0.4 1.1-0.9 0-0.6-0.4-1-0.9-1.1-5-0.3-4.8-0.3-4.8-0.3C43.1 25.6 42.7 26.1 42.7 26.6z" fill="#ffffff" data-fill-palette-color="#ffffff"></path>
                        </g>
                          <g fill="#ffffff" data-fill-palette-color="#ffffff">
                          <path class="" d="M24 28.6h14.8c0.6 0 1-0.4 1-1 0-0.6-0.4-1-1-1H24c-0.6 0-1 0.4-1 1C23 28.1 23.4 28.6 24 28.6z" fill="#ffffff" data-fill-palette-color="#ffffff"></path>
                        </g>
                          <g fill="#ffffff" data-fill-palette-color="#ffffff">
                          <path class="" d="M24 33.7h16.6c0.6 0 1-0.4 1-1 0-0.6-0.4-1-1-1H24c-0.6 0-1 0.4-1 1C23 33.3 23.4 33.7 24 33.7z" fill="#ffffff" data-fill-palette-color="#ffffff"></path>
                        </g>
                          <g fill="#ffffff" data-fill-palette-color="#ffffff">
                          <path class="" d="M24 38.7h23.8c0.6 0 1-0.4 1-1 0-0.6-0.4-1-1-1H24c-0.6 0-1 0.4-1 1C23 38.2 23.4 38.7 24 38.7z" fill="#ffffff" data-fill-palette-color="#ffffff"></path>
                        </g>
                          <g fill="#ffffff" data-fill-palette-color="#ffffff">
                          <path class="" d="M24 43.6h23.8c0.6 0 1-0.4 1-1 0-0.6-0.4-1-1-1H24c-0.6 0-1 0.4-1 1C23 43.2 23.4 43.6 24 43.6z" fill="#ffffff" data-fill-palette-color="#ffffff"></path>
                        </g>
                      </g>
                    </svg>
                                    </g>
                                </svg>
                            </g>
                        </svg>
                    </g>
                    <defs></defs>
                </svg>
                <rect width="395.52" height="43.7528356969933" fill="none" stroke="none" visibility="hidden"></rect>
            </g>
        </svg>
    </g>
</svg>
